<?xml version="1.0" encoding="UTF-8"?>
<svg width="182px" height="42px" viewBox="0 0 182 42" version="1.1" xmlns="http://www.w3.org/2000/svg" xmlns:xlink="http://www.w3.org/1999/xlink">
    <title>logo-light</title>
    <defs>
        <polygon id="path-1" points="0.677630702 0.64394717 2.42419211 0.64394717 2.42419211 2.37735849 0.677630702 2.37735849"></polygon>
        <polygon id="path-3" points="0.0670526316 0.124415094 3.22331579 0.124415094 3.22331579 5.23478491 0.0670526316 5.23478491"></polygon>
    </defs>
    <g id="Symbols" stroke="none" stroke-width="1" fill="none" fill-rule="evenodd">
        <g id="login-bg" transform="translate(-116.000000, -19.000000)">
            <g id="logo-light" transform="translate(116.000000, 19.000000)">
                <polygon id="Fill-1" fill="#EEA648" points="107.583553 36.7775774 178.856509 36.7775774 178.856509 4.72999245 117.756395 4.72999245 117.756395 5.32433208 178.257825 5.32433208 178.257825 36.1832377 107.583553 36.1832377"></polygon>
                <polygon id="Fill-2" fill="#EEA648" points="115.361897 2.352 115.361897 2.94713208 180.652801 2.94713208 180.652801 38.5607547 105.189055 38.5607547 105.189055 39.1550943 181.251485 39.1550943 181.251485 2.352"></polygon>
                <polygon id="Fill-3" fill="#EEA648" points="0 2.352 0 39.1550943 76.0632281 39.1550943 76.0632281 38.5607547 0.598684211 38.5607547 0.598684211 2.94713208 65.7123772 2.94713208 65.7123772 2.352"></polygon>
                <polygon id="Fill-4" fill="#EEA648" points="2.39481667 36.7775774 73.6510096 36.7775774 73.6510096 36.1832377 2.99350088 36.1832377 2.99350088 5.32433208 63.3177202 5.32433208 63.3177202 4.72999245 2.39481667 4.72999245"></polygon>
                <g id="Group-45" transform="translate(11.175439, 0.668275)">
                    <path d="M72.5332263,33.5911245 C72.9914193,33.5911245 73.3881474,33.6545208 73.7226123,33.7805208 C74.0570772,33.9065208 74.3484368,34.078483 74.595893,34.2956151 L74.595893,35.8123698 C74.4210772,35.6824075 74.2390772,35.5556151 74.049893,35.4327849 C73.8607088,35.3099547 73.6475772,35.2093132 73.4120947,35.1292755 C73.1750158,35.0500302 72.8972263,35.0104075 72.5771298,35.0104075 C72.1404895,35.0104075 71.7437614,35.1150113 71.3869456,35.3250113 C71.0309281,35.5342189 70.7467526,35.8163321 70.5360158,36.169766 C70.3244807,36.5232 70.2199105,36.9281434 70.2199105,37.3830113 C70.2199105,37.8315396 70.3244807,38.2333132 70.5360158,38.5915019 C70.7467526,38.9488981 71.0309281,39.2302189 71.3869456,39.4362566 C71.7437614,39.6422943 72.1404895,39.7453132 72.5771298,39.7453132 C73.0640596,39.7453132 73.4735596,39.6708226 73.8048316,39.522634 C74.1353053,39.3752377 74.4354456,39.1921811 74.7052526,38.9758415 L74.7052526,40.4387094 C74.4577965,40.6621811 74.1480772,40.840483 73.7776912,40.9744075 C73.406507,41.1075396 72.9914193,41.1748981 72.5332263,41.1748981 C72.0095772,41.1748981 71.5146649,41.0829736 71.0492877,40.8991245 C70.5831123,40.714483 70.1720158,40.4545585 69.8159982,40.1185585 C69.4591825,39.7825585 69.1789982,39.3839547 68.9754456,38.9219547 C68.771893,38.4599547 68.6697175,37.9464453 68.6697175,37.3830113 C68.6697175,36.8195774 68.771893,36.3068604 68.9754456,35.8448604 C69.1789982,35.3828604 69.4591825,34.9834642 69.8159982,34.6474642 C70.1720158,34.3114642 70.5831123,34.0515396 71.0492877,33.8676906 C71.5146649,33.6830491 72.0095772,33.5911245 72.5332263,33.5911245" id="Fill-5" fill="#FFFFFF"></path>
                    <path d="M81.5290553,35.0104075 C81.0924149,35.0104075 80.7012746,35.1150113 80.3564325,35.3242189 C80.0107921,35.5342189 79.7393886,35.8163321 79.5430202,36.169766 C79.3466518,36.5232 79.2484675,36.9281434 79.2484675,37.3830113 C79.2484675,37.8315396 79.3466518,38.2333132 79.5430202,38.5915019 C79.7393886,38.9488981 80.0107921,39.2302189 80.3564325,39.4362566 C80.7012746,39.6422943 81.0924149,39.7453132 81.5290553,39.7453132 C81.9656956,39.7453132 82.3544412,39.6422943 82.6968886,39.4362566 C83.039336,39.2302189 83.3083447,38.9488981 83.5047132,38.5915019 C83.7010816,38.2333132 83.7992658,37.8315396 83.7992658,37.3830113 C83.7992658,36.9281434 83.7010816,36.5232 83.5047132,36.169766 C83.3083447,35.8163321 83.039336,35.5342189 82.6968886,35.3242189 C82.3544412,35.1150113 81.9656956,35.0104075 81.5290553,35.0104075 M81.5290553,33.5911245 C82.0527044,33.5911245 82.5436254,33.6830491 83.0026167,33.8676906 C83.4608096,34.0515396 83.8663184,34.3114642 84.219143,34.6474642 C84.5727658,34.9834642 84.8481605,35.3828604 85.0485202,35.8448604 C85.2488798,36.3068604 85.3486605,36.8195774 85.3486605,37.3830113 C85.3486605,37.9464453 85.2488798,38.4599547 85.0485202,38.9219547 C84.8481605,39.3839547 84.5727658,39.7825585 84.219143,40.1185585 C83.8663184,40.4545585 83.4608096,40.714483 83.0026167,40.8991245 C82.5436254,41.0829736 82.0527044,41.1748981 81.5290553,41.1748981 C81.0054061,41.1748981 80.5128886,41.0829736 80.0507044,40.8991245 C79.5885202,40.714483 79.1814149,40.4545585 78.8285904,40.1185585 C78.4749675,39.7825585 78.1987746,39.3839547 77.9992132,38.9219547 C77.7988535,38.4599547 77.6990728,37.9464453 77.6990728,37.3830113 C77.6990728,36.8195774 77.7988535,36.3068604 77.9992132,35.8448604 C78.1987746,35.3828604 78.4749675,34.9834642 78.8285904,34.6474642 C79.1814149,34.3114642 79.5885202,34.0515396 80.0507044,33.8676906 C80.5128886,33.6830491 81.0054061,33.5911245 81.5290553,33.5911245" id="Fill-7" fill="#FFFFFF"></path>
                    <g id="Group-11" transform="translate(87.807018, 38.830189)">
                        <mask id="mask-2" fill="white">
                            <use xlink:href="#path-1"></use>
                        </mask>
                        <g id="Clip-10"></g>
                        <path d="M1.5509114,0.64394717 C1.79118333,0.64394717 1.99633246,0.728739623 2.16715702,0.898324528 C2.33798158,1.06790943 2.42419211,1.27236226 2.42419211,1.51089057 C2.42419211,1.74941887 2.33798158,1.95307925 2.16715702,2.12266415 C1.99633246,2.29224906 1.79118333,2.37783396 1.5509114,2.37783396 C1.31063947,2.37783396 1.10469211,2.29224906 0.934665789,2.12266415 C0.763042982,1.95307925 0.677630702,1.74941887 0.677630702,1.51089057 C0.677630702,1.27236226 0.763042982,1.06790943 0.934665789,0.898324528 C1.10469211,0.728739623 1.31063947,0.64394717 1.5509114,0.64394717" id="Fill-9" fill="#FFFFFF" mask="url(#mask-2)"></path>
                    </g>
                    <path d="M8.43266667,19.4062981 C7.91620175,19.8904868 7.22092982,20.1321849 6.34844737,20.1321849 C5.86790351,20.1321849 5.39853509,20.0854302 4.94034211,19.9911283 C4.48214912,19.8976189 4.09260526,19.785883 3.77250877,19.6551283 L3.77250877,15.3647887 L6.28299123,15.3647887 C7.06846491,15.3647887 7.75176316,15.5597321 8.33448246,15.9504113 C8.91640351,16.3402981 9.20776316,16.9179962 9.20776316,17.6835057 C9.20776316,18.3483736 8.94913158,18.9229019 8.43266667,19.4062981 M8.79267544,12.8947132 C8.13811404,12.6641094 7.46838596,12.5484113 6.78508772,12.5484113 L0.738377193,12.5484113 L0.738377193,27.0661472 L3.77250877,27.0661472 L3.77250877,22.0824113 C4.12214035,22.2559585 4.55798246,22.407317 5.08242982,22.5372792 C5.60607895,22.6672415 6.19518421,22.7322226 6.85054386,22.7322226 C7.82520175,22.7322226 8.7272193,22.515883 9.55659649,22.0824113 C10.3859737,21.6489396 11.0517105,21.0530151 11.553807,20.2946377 C12.0559035,19.5362604 12.3073509,18.6661472 12.3073509,17.6835057 C12.3073509,16.8752038 12.1500965,16.1556566 11.8379825,15.5272415 C11.5250702,14.8996189 11.1027982,14.3615434 10.5719649,13.9130151 C10.0403333,13.4660717 9.44723684,13.1261094 8.79267544,12.8947132" id="Fill-12" fill="#FFFFFF"></path>
                    <path d="M18.7206158,12.5048264 L18.7206158,21.324034 C18.7206158,22.5808642 19.0008,23.6609774 19.5611684,24.5635811 C20.1207386,25.4661849 20.8814667,26.1595811 21.8417561,26.6437698 C22.8020456,27.127166 23.8716947,27.3696566 25.0507035,27.3696566 C26.228914,27.3696566 27.2945719,27.127166 28.2484754,26.6437698 C29.2007825,26.1595811 29.9575193,25.4661849 30.5178877,24.5635811 C31.0782561,23.6609774 31.3584404,22.5808642 31.3584404,21.324034 L31.3584404,12.5048264 L28.3466596,12.5048264 L28.3466596,21.1504868 C28.3466596,22.2630906 28.0409316,23.0935811 27.4294754,23.6427509 C26.8188175,24.1919208 26.0253614,24.4661094 25.0507035,24.4661094 C24.0608789,24.4803736 23.2642298,24.2101472 22.6607561,23.6530528 C22.0564842,23.0975434 21.7547474,22.2630906 21.7547474,21.1504868 L21.7547474,12.5048264 L18.7206158,12.5048264 Z" id="Fill-14" fill="#FFFFFF"></path>
                    <polygon id="Fill-16" fill="#FFFFFF" points="52.6807781 27.0661472 52.6807781 12.4398453 51.6550325 12.4398453 45.455857 18.8967509 39.2135763 12.4398453 38.1878307 12.4398453 38.1878307 27.0661472 41.2219623 27.0661472 41.2219623 18.2255434 45.0192167 22.2987509 45.8924974 22.2987509 49.6466465 18.2255434 49.6466465 27.0661472"></polygon>
                    <path d="M67.3134184,19.4062981 C66.7969535,19.8904868 66.1016816,20.1321849 65.2291991,20.1321849 C64.7486553,20.1321849 64.2792868,20.0854302 63.8210939,19.9911283 C63.3629009,19.8976189 62.973357,19.785883 62.6532605,19.6551283 L62.6532605,15.3647887 L65.163743,15.3647887 C65.9492167,15.3647887 66.6325149,15.5597321 67.2152342,15.9504113 C67.7971553,16.3402981 68.0885149,16.9179962 68.0885149,17.6835057 C68.0885149,18.3483736 67.8298833,18.9229019 67.3134184,19.4062981 M69.4527167,13.9130151 C68.9218833,13.4660717 68.3279886,13.1261094 67.6734272,12.8947132 C67.0188658,12.6641094 66.3491377,12.5484113 65.6658395,12.5484113 L59.6191289,12.5484113 L59.6191289,27.0661472 L62.6532605,27.0661472 L62.6532605,22.0824113 C63.0028921,22.2559585 63.4387342,22.407317 63.9631816,22.5372792 C64.4868307,22.6672415 65.075936,22.7322226 65.7312956,22.7322226 C66.7059535,22.7322226 67.6079711,22.515883 68.4373482,22.0824113 C69.2667254,21.6489396 69.9324623,21.0530151 70.4345588,20.2946377 C70.9366553,19.5362604 71.1881026,18.6661472 71.1881026,17.6835057 C71.1881026,16.8752038 71.0308482,16.1556566 70.7187342,15.5272415 C70.4058219,14.8996189 69.98355,14.3615434 69.4527167,13.9130151" id="Fill-18" fill="#FFFFFF"></path>
                    <polygon id="Fill-20" fill="#FFFFFF" points="77.820007 27.0661472 88.1660684 27.0661472 88.1660684 24.4011283 80.8541386 24.4011283 80.8541386 20.8905623 87.3151386 20.8905623 87.3151386 18.441883 80.8541386 18.441883 80.8541386 15.1484491 88.1660684 15.1484491 88.1660684 12.5484113 77.820007 12.5484113"></polygon>
                    <path d="M102.808846,18.8645774 C102.292382,19.2188038 101.59711,19.3955208 100.724627,19.3955208 C100.287987,19.3955208 99.8545395,19.3630302 99.4258816,19.2980491 C98.9964254,19.2330679 98.6068816,19.1435208 98.2580482,19.0270302 L98.2580482,15.3651057 L100.767732,15.3651057 C101.554004,15.3651057 102.219741,15.5204264 102.764943,15.8310679 C103.310943,16.1417094 103.583943,16.6512566 103.583943,17.358917 C103.583943,18.0087283 103.324513,18.5111434 102.808846,18.8645774 M106.039346,19.4494075 C106.468004,18.8360491 106.683531,18.1030302 106.683531,17.2503509 C106.683531,16.4412566 106.526276,15.7438981 106.214162,15.1590679 C105.900452,14.5742377 105.478978,14.0868792 104.948145,13.6969925 C104.416513,13.3063132 103.823417,13.0178604 103.168855,12.8300491 C102.514294,12.6422377 101.844566,12.5479358 101.161268,12.5479358 L95.2239167,12.5479358 L95.2239167,27.0664642 L98.2580482,27.0664642 L98.2580482,21.1286151 L103.343671,27.0664642 L107.338092,27.0664642 L102.077654,21.4757094 C102.891864,21.4186528 103.649399,21.2197472 104.347864,20.8797849 C105.046329,20.5406151 105.60989,20.0643509 106.039346,19.4494075" id="Fill-22" fill="#FFFFFF"></path>
                    <path d="M115.858326,15.3651057 L118.368809,15.3651057 C119.154282,15.3651057 119.837581,15.5600491 120.4203,15.9499358 C121.001423,16.3398226 121.293581,16.9183132 121.293581,17.6838226 C121.293581,18.3486906 121.034151,18.9224264 120.518484,19.4066151 C120.001221,19.8908038 119.306747,20.1325019 118.434265,20.1325019 C117.953721,20.1325019 117.484353,20.0857472 117.02616,19.9914453 C116.567967,19.8979358 116.177625,19.7854075 115.858326,19.6554453 L115.858326,15.3651057 Z M117.168247,22.5375962 C117.691896,22.6675585 118.281002,22.7325396 118.935563,22.7325396 C119.910221,22.7325396 120.813037,22.5154075 121.642414,22.0827283 C122.471791,21.6492566 123.137528,21.0533321 123.639625,20.2949547 C124.141721,19.5365774 124.39237,18.6664642 124.39237,17.6838226 C124.39237,16.8747283 124.235914,16.1559736 123.9238,15.5275585 C123.610089,14.8991434 123.188616,14.3610679 122.657782,13.9133321 C122.126151,13.4663887 121.533054,13.1264264 120.878493,12.8950302 C120.223932,12.6644264 119.554204,12.5479358 118.870107,12.5479358 L112.824195,12.5479358 L112.824195,27.0664642 L115.858326,27.0664642 L115.858326,22.0827283 C116.20716,22.255483 116.6438,22.407634 117.168247,22.5375962 L117.168247,22.5375962 Z" id="Fill-24" fill="#FFFFFF"></path>
                    <path d="M134.287343,17.3586 L136.120913,21.8002981 L132.453773,21.8002981 L134.287343,17.3586 Z M137.168211,24.3575434 L138.281764,27.0661472 L141.839545,27.0661472 L135.029711,12.4398453 L133.523422,12.4398453 L126.713589,27.0661472 L130.271369,27.0661472 L131.384124,24.3575434 L137.168211,24.3575434 Z" id="Fill-26" fill="#FFFFFF"></path>
                    <polygon id="Fill-28" fill="#FFFFFF" points="147.816169 12.5481736 147.816169 27.0659094 158.162231 27.0659094 158.162231 24.3573057 150.850301 24.3573057 150.850301 12.5481736"></polygon>
                    <polygon id="Fill-30" fill="#FFFFFF" points="62.1767079 2.35461509 62.1767079 2.98857736 59.7268921 2.98857736 59.7268921 4.60042642 62.4999974 4.60042642 62.4999974 5.23438868 59.0499798 5.23438868 59.0499798 0.236388679 62.4999974 0.236388679 62.4999974 0.870350943 59.7268921 0.870350943 59.7268921 2.35461509"></polygon>
                    <path d="M66.5300202,0.161422642 C66.8253711,0.161422642 67.0696342,0.204215094 67.2620114,0.288215094 C67.4551868,0.373007547 67.6244149,0.462554717 67.7696956,0.556856604 L67.7696956,1.25104528 C67.6292044,1.14644151 67.4591781,1.04817736 67.2588184,0.955460377 C67.0584588,0.864328302 66.8405377,0.818366038 66.6050553,0.818366038 C66.4549851,0.818366038 66.2977307,0.843724528 66.1348886,0.896026415 C65.9728447,0.948328302 65.8355465,1.0323283 65.7261868,1.14644151 C65.6152307,1.26055472 65.5601518,1.40715849 65.5601518,1.58625283 C65.5601518,1.78595094 65.6327921,1.93730943 65.7788711,2.04191321 C65.9233535,2.14572453 66.0989675,2.24557358 66.3041167,2.33987547 L66.9953974,2.65368679 C67.341836,2.80742264 67.602064,2.97938491 67.7768798,3.16798868 C67.9524939,3.35738491 68.0403009,3.60859245 68.0403009,3.92161132 C68.0403009,4.19500755 67.9596781,4.43512075 67.8000289,4.64115849 C67.6395816,4.84798868 67.4288447,5.01044151 67.1686167,5.13010189 C66.9075904,5.24896981 66.6218184,5.30919623 66.3120991,5.30919623 C66.0207395,5.30919623 65.7533272,5.2592717 65.5074675,5.16021509 C65.2624061,5.06115849 65.0492746,4.94942264 64.8688711,4.82421509 L64.8688711,4.13002642 C65.0644412,4.2647434 65.2887482,4.38598868 65.5417921,4.49217736 C65.794836,4.59915849 66.0814061,4.65225283 66.4023009,4.65225283 C66.6521518,4.65225283 66.8732658,4.59044151 67.0632482,4.46602642 C67.2532307,4.34161132 67.3490202,4.17044151 67.3490202,3.95172453 C67.3490202,3.82730943 67.3107044,3.7203283 67.2324763,3.62998868 C67.1550465,3.54123396 67.0608535,3.46436604 66.9506956,3.39938491 C66.8405377,3.33440377 66.7327746,3.27972453 66.6274061,3.23534717 L65.7932395,2.86210189 C65.4324325,2.70361132 65.1865728,2.51659245 65.057257,2.30263019 C64.9263447,2.08866792 64.8616868,1.84300755 64.8616868,1.56406415 C64.8616868,1.30017736 64.9375202,1.06323396 65.0907833,0.851649057 C65.2440465,0.640064151 65.4475991,0.472856604 65.7030377,0.347649057 C65.9584763,0.224026415 66.2338711,0.161422642 66.5300202,0.161422642" id="Fill-32" fill="#FFFFFF"></path>
                    <polygon id="Fill-34" fill="#FFFFFF" points="74.1745789 0.236071698 74.1745789 0.870033962 72.439193 0.870033962 72.439193 5.21188302 71.7622807 5.21188302 71.7622807 0.870033962 70.0268947 0.870033962 70.0268947 0.236071698"></polygon>
                    <g id="Group-38" transform="translate(79.824561, 0.000000)">
                        <mask id="mask-4" fill="white">
                            <use xlink:href="#path-3"></use>
                        </mask>
                        <g id="Clip-37"></g>
                        <path d="M1.51746491,0.124256604 C1.8479386,0.124256604 2.13770175,0.183690566 2.38914912,0.303350943 C2.639,0.422218868 2.83377193,0.593388679 2.9750614,0.814483019 C3.11475439,1.03557736 3.18579825,1.29787925 3.18579825,1.60138868 C3.18579825,1.92470943 3.1027807,2.23138868 2.93754386,2.52221887 C2.77230702,2.81384151 2.53762281,3.12289811 2.23428947,3.45176604 C1.93175439,3.77984151 1.57174561,4.1681434 1.15665789,4.61508679 L3.22331579,4.61508679 L3.22331579,5.23478491 L0.0670526316,5.23478491 L0.0670526316,4.9661434 C0.577929825,4.39874717 1.01776316,3.9177283 1.38974561,3.52229434 C1.76013158,3.12686038 2.04510526,2.78769057 2.24626316,2.50399245 C2.44582456,2.22029434 2.54640351,1.96987925 2.54640351,1.75036981 C2.54640351,1.42784151 2.4394386,1.18535094 2.22710526,1.02289811 C2.01397368,0.862030189 1.75773684,0.780407547 1.45759649,0.780407547 C1.2109386,0.780407547 0.979447368,0.842218868 0.761526316,0.963464151 C0.543605263,1.08550189 0.362403509,1.21150189 0.217122807,1.33987925 L0.217122807,0.638558491 C0.347236842,0.519690566 0.525245614,0.403992453 0.750350877,0.291464151 C0.976254386,0.179728302 1.23169298,0.124256604 1.51746491,0.124256604" id="Fill-36" fill="#FFFFFF" mask="url(#mask-4)"></path>
                    </g>
                    <path d="M87.0248167,0.780566038 C86.8196675,0.780566038 86.6384658,0.836830189 86.4804132,0.948566038 C86.3223605,1.06030189 86.19065,1.21007547 86.0852816,1.39630189 C85.9799132,1.5825283 85.9000886,1.79173585 85.8450096,2.02313208 C85.7899307,2.25373585 85.7627904,2.4914717 85.7627904,2.73554717 C85.7627904,2.97962264 85.7899307,3.21656604 85.8450096,3.44796226 C85.9000886,3.67935849 85.9799132,3.88777358 86.0852816,4.07479245 C86.19065,4.26101887 86.3223605,4.41 86.4804132,4.52173585 C86.6384658,4.63426415 86.8196675,4.68973585 87.0248167,4.68973585 C87.2299658,4.68973585 87.4119658,4.63426415 87.5700184,4.52173585 C87.7280711,4.41 87.8589833,4.26101887 87.9643518,4.07479245 C88.0697202,3.88777358 88.1495447,3.67935849 88.2054219,3.44796226 C88.2597026,3.21656604 88.2876412,2.97962264 88.2876412,2.73554717 C88.2876412,2.4914717 88.2597026,2.25373585 88.2054219,2.02313208 C88.1495447,1.79173585 88.0697202,1.5825283 87.9643518,1.39630189 C87.8589833,1.21007547 87.7280711,1.06030189 87.5700184,0.948566038 C87.4119658,0.836830189 87.2299658,0.780566038 87.0248167,0.780566038 M87.0248167,0.124415094 C87.3505009,0.124415094 87.6330798,0.19890566 87.870957,0.347886792 C88.108036,0.497660377 88.3052026,0.697358491 88.4608605,0.948566038 C88.6157202,1.19977358 88.732264,1.47950943 88.8096939,1.78777358 C88.8879219,2.09683019 88.9262377,2.41222642 88.9262377,2.73554717 C88.9262377,3.05411321 88.8879219,3.36871698 88.8096939,3.67935849 C88.732264,3.99 88.6157202,4.27132075 88.4608605,4.52173585 C88.3052026,4.77373585 88.108036,4.97343396 87.870957,5.12241509 C87.6330798,5.27139623 87.3505009,5.34667925 87.0248167,5.34667925 C86.7047202,5.34667925 86.4237377,5.27139623 86.1834658,5.12241509 C85.9431939,4.97343396 85.7444307,4.77373585 85.5895711,4.52173585 C85.4339132,4.27132075 85.3181675,3.99 85.2407377,3.67935849 C85.1625096,3.36871698 85.1233956,3.05411321 85.1233956,2.73554717 C85.1233956,2.41222642 85.1625096,2.09683019 85.2407377,1.78777358 C85.3181675,1.47950943 85.4339132,1.19977358 85.5895711,0.948566038 C85.7444307,0.697358491 85.9431939,0.497660377 86.1834658,0.347886792 C86.4237377,0.19890566 86.7047202,0.124415094 87.0248167,0.124415094" id="Fill-39" fill="#FFFFFF"></path>
                    <path d="M93.9939,4.63751321 L93.9939,5.23423019 L91.2654965,5.23423019 L91.2654965,4.63751321 L92.2649,4.63751321 L92.2649,1.38528679 C92.1148298,1.5144566 91.9599702,1.60400377 91.7995228,1.65313585 C91.6398737,1.70385283 91.4794263,1.74347547 91.3181807,1.77279623 L91.3181807,1.13170189 C91.6095404,1.05641887 91.861786,0.935173585 92.0773123,0.765588679 C92.2928386,0.596796226 92.4708474,0.420079245 92.6113386,0.236230189 L92.9418123,0.236230189 L92.9418123,4.63751321 L93.9939,4.63751321 Z" id="Fill-41" fill="#FFFFFF"></path>
                    <path d="M98.1067009,2.59338113 C97.9223061,2.59338113 97.7411044,2.63696604 97.5654904,2.72413585 C97.3906746,2.81130566 97.2477886,2.93096604 97.1376307,3.08232453 C97.0274728,3.23447547 96.9723939,3.41198491 96.9723939,3.61564528 C96.9723939,3.83911698 97.0274728,4.03564528 97.1376307,4.20523019 C97.2477886,4.37481509 97.3906746,4.50636226 97.5654904,4.60066415 C97.7411044,4.69496604 97.9223061,4.74172075 98.1067009,4.74172075 C98.2974816,4.74172075 98.4762886,4.69496604 98.6447184,4.60066415 C98.8115518,4.50636226 98.94885,4.37481509 99.0542184,4.20523019 C99.1587886,4.03564528 99.2114728,3.83911698 99.2114728,3.61564528 C99.2114728,3.41198491 99.1587886,3.23447547 99.0542184,3.08232453 C98.94885,2.93096604 98.8115518,2.81130566 98.6447184,2.72413585 C98.4762886,2.63696604 98.2974816,2.59338113 98.1067009,2.59338113 L98.1067009,2.59338113 Z M99.2873061,0.235833962 C99.1316482,0.38085283 98.94885,0.547267925 98.7381132,0.735871698 C98.5273763,0.925267925 98.315043,1.12655094 98.0995167,1.33972075 C97.8847886,1.55447547 97.6908149,1.76764528 97.5207886,1.98160755 C97.3507623,2.19636226 97.2270342,2.39923019 97.1527974,2.59338113 C97.2773237,2.43964528 97.4353763,2.30017358 97.6253588,2.17575849 C97.8169377,2.0513434 98.0284728,1.98953208 98.2647535,1.98953208 C98.5952272,1.98953208 98.8786044,2.06323019 99.1140868,2.20983396 C99.3495693,2.35643774 99.5307711,2.54741887 99.6584904,2.78356981 C99.7862096,3.02051321 99.8508675,3.27251321 99.8508675,3.54115472 C99.8508675,3.75511698 99.8117535,3.96907925 99.7335254,4.18224906 C99.6560956,4.39700377 99.543543,4.59194717 99.3958675,4.76866415 C99.2481921,4.94538113 99.0685868,5.08564528 98.85785,5.1894566 C98.6479114,5.29406038 98.4100342,5.34636226 98.1442184,5.34636226 C97.8089553,5.34636226 97.5040254,5.26870189 97.2310254,5.11496604 C96.9588237,4.96123019 96.7401044,4.74013585 96.5780605,4.45089057 C96.4144202,4.16243774 96.3329991,3.81930566 96.3329991,3.42149434 C96.3329991,3.15364528 96.3832886,2.88817358 96.4838675,2.62666415 C96.5844465,2.36594717 96.712964,2.11473962 96.8702184,1.87383396 C97.0282711,1.6329283 97.1974991,1.40707925 97.3779026,1.19866415 C97.5583061,0.989456604 97.7283325,0.803230189 97.8895781,0.639192453 C98.0500254,0.475154717 98.1825342,0.340437736 98.2879026,0.235833962 L99.2873061,0.235833962 Z" id="Fill-43" fill="#FFFFFF"></path>
                </g>
            </g>
        </g>
    </g>
</svg>